<?xml version="1.0" encoding="UTF-8" standalone="no"?>
<svg
   xmlns:dc="http://purl.org/dc/elements/1.1/"
   xmlns:cc="http://creativecommons.org/ns#"
   xmlns:rdf="http://www.w3.org/1999/02/22-rdf-syntax-ns#"
   xmlns:svg="http://www.w3.org/2000/svg"
   xmlns="http://www.w3.org/2000/svg"
   version="1.1"
   width="721.6358"
   height="721.6358"
   id="svg2">
  <metadata
     id="metadata72">
    <rdf:RDF>
      <cc:Work
         rdf:about="">
        <dc:format>image/svg+xml</dc:format>
        <dc:type
           rdf:resource="http://purl.org/dc/dcmitype/StillImage" />
        <dc:title></dc:title>
      </cc:Work>
    </rdf:RDF>
  </metadata>
  <defs
     id="defs4">
    <filter
       color-interpolation-filters="sRGB"
       id="filter3940">
      <feGaussianBlur
         stdDeviation="1.3917526"
         id="feGaussianBlur3942" />
    </filter>
  </defs>
  <g
     transform="translate(100.70902,-122.59953)"
     id="layer1">
    <path
       d="M 186.45796,129.81433 C 236.18894,111.33642 291.0396,138.28161 333.75977,129.43581 L 261.01796,483.41743 z"
       id="path2978"
       style="opacity:0.98947371;fill:#75aadb;fill-opacity:1;stroke:#3784cb;stroke-width:1.16529775;stroke-miterlimit:4;stroke-dasharray:none;stroke-opacity:0.99215686" />
    <path
       d="M 408.36671,154.05559 C 459.46099,168.33781 487.9981,222.37732 527.75886,240.33118 L 260.84432,483.95179 z"
       id="path3602"
       style="opacity:0.98947371;fill:#75aadb;fill-opacity:1;stroke:#3784cb;stroke-width:1.16529775;stroke-miterlimit:4;stroke-dasharray:none;stroke-opacity:0.99215686" />
    <path
       d="M 573.64602,304.1019 C 606.58727,345.6889 597.91065,406.18149 619.52477,444.07725 L 260.38977,484.28201 z"
       id="path3606"
       style="opacity:0.98947371;fill:#75aadb;fill-opacity:1;stroke:#3784cb;stroke-width:1.16529775;stroke-miterlimit:4;stroke-dasharray:none;stroke-opacity:0.99215686" />
    <path
       d="M 502.88886,215.98991 C 547.06896,245.3621 557.51024,305.57518 589.77691,334.93707 L 260.64319,484.15289 z"
       id="path3604"
       style="opacity:0.98947371;fill:#75aadb;fill-opacity:1;stroke:#3784cb;stroke-width:1.16529775;stroke-miterlimit:4;stroke-dasharray:none;stroke-opacity:0.99215686" />
    <path
       d="M 619.16477,522.64063 C 621.37058,575.6476 578.79438,619.48715 574.00603,662.84993 L 259.82793,484.28201 z"
       id="path3610"
       style="opacity:0.98947371;fill:#75aadb;fill-opacity:1;stroke:#3784cb;stroke-width:1.16529775;stroke-miterlimit:4;stroke-dasharray:none;stroke-opacity:0.99215686" />
    <path
       d="M 527.53638,726.19743 C 498.16419,770.37753 437.95108,780.81881 408.58924,813.08551 L 259.37339,483.95174 z"
       id="path3614"
       style="opacity:0.98947371;fill:#75aadb;fill-opacity:1;stroke:#3784cb;stroke-width:1.16529775;stroke-miterlimit:4;stroke-dasharray:none;stroke-opacity:0.99215686" />
    <path
       d="M 333.75976,837.02051 C 284.02876,855.49843 229.1781,828.55323 186.45798,837.39909 L 259.19979,483.41738 z"
       id="path3618"
       style="opacity:0.98947371;fill:#75aadb;fill-opacity:1;stroke:#3784cb;stroke-width:1.16529775;stroke-miterlimit:4;stroke-dasharray:none;stroke-opacity:0.99215686" />
    <path
       d="M 111.85101,812.77922 C 60.75673,798.49705 32.219613,744.45751 -7.5411627,726.50369 L 259.37344,482.88305 z"
       id="path3622"
       style="opacity:0.98947371;fill:#75aadb;fill-opacity:1;stroke:#3784cb;stroke-width:1.16529775;stroke-miterlimit:4;stroke-dasharray:none;stroke-opacity:0.99215686" />
    <path
       d="M -53.428259,662.73291 C -86.369549,621.14595 -77.692928,560.65334 -99.307081,522.75762 L 259.828,482.55282 z"
       id="path3626"
       style="opacity:0.98947371;fill:#75aadb;fill-opacity:1;stroke:#3784cb;stroke-width:1.16529775;stroke-miterlimit:4;stroke-dasharray:none;stroke-opacity:0.99215686" />
    <path
       d="M -98.947004,444.19418 C -101.15284,391.18723 -58.576661,347.34768 -53.788336,303.9849 L 260.38984,482.55287 z"
       id="path3630"
       style="opacity:0.98947371;fill:#75aadb;fill-opacity:1;stroke:#3784cb;stroke-width:1.16529775;stroke-miterlimit:4;stroke-dasharray:none;stroke-opacity:0.99215686" />
    <path
       d="M -7.3185908,240.6374 C 22.053555,196.45733 82.266659,186.01603 111.6285,153.74933 L 260.84435,482.88314 z"
       id="path3634"
       style="opacity:0.98947371;fill:#75aadb;fill-opacity:1;stroke:#3784cb;stroke-width:1.16529775;stroke-miterlimit:4;stroke-dasharray:none;stroke-opacity:0.99215686" />
    <path
       d="M 80.793396,169.88026 C 122.38036,136.93902 182.87297,145.61562 220.76869,124.00146 L 260.97346,483.13657 z"
       id="path3636"
       style="opacity:0.98947371;fill:#75aadb;fill-opacity:1;stroke:#3784cb;stroke-width:1.16529775;stroke-miterlimit:4;stroke-dasharray:none;stroke-opacity:0.99215686" />
    <path
       d="M 299.33206,124.36152 C 352.33903,122.1557 396.17858,164.73189 439.54136,169.52028 L 260.97346,483.69836 z"
       id="path3600"
       style="opacity:0.98947371;fill:#75aadb;fill-opacity:1;stroke:#3784cb;stroke-width:1.16529775;stroke-miterlimit:4;stroke-dasharray:none;stroke-opacity:0.99215686" />
    <path
       d="M 613.71197,409.76653 C 632.18986,459.49752 605.24466,514.34818 614.0905,557.06833 L 260.10886,484.3265 z"
       id="path3608"
       style="opacity:0.98947371;fill:#75aadb;fill-opacity:1;stroke:#3784cb;stroke-width:1.16529775;stroke-miterlimit:4;stroke-dasharray:none;stroke-opacity:0.99215686" />
    <path
       d="M 589.4707,631.67528 C 575.18848,682.76956 521.14894,711.30667 503.19513,751.06745 L 259.5745,484.15287 z"
       id="path3612"
       style="opacity:0.98947371;fill:#75aadb;fill-opacity:1;stroke:#3784cb;stroke-width:1.16529775;stroke-miterlimit:4;stroke-dasharray:none;stroke-opacity:0.99215686" />
    <path
       d="M 439.42439,796.95457 C 397.83738,829.89584 337.3448,821.21921 299.44906,842.83337 L 259.24428,483.69831 z"
       id="path3616"
       style="opacity:0.98947371;fill:#75aadb;fill-opacity:1;stroke:#3784cb;stroke-width:1.16529775;stroke-miterlimit:4;stroke-dasharray:none;stroke-opacity:0.99215686" />
    <path
       d="M 220.88566,842.47331 C 167.87869,844.67915 124.03913,802.10295 80.676354,797.31462 L 259.2443,483.13645 z"
       id="path3620"
       style="opacity:0.98947371;fill:#75aadb;fill-opacity:1;stroke:#3784cb;stroke-width:1.16529775;stroke-miterlimit:4;stroke-dasharray:none;stroke-opacity:0.99215686" />
    <path
       d="M 17.328879,750.8449 C -26.851242,721.47275 -37.29252,661.25965 -69.559219,631.89781 L 259.57457,482.68194 z"
       id="path3624"
       style="opacity:0.98947371;fill:#75aadb;fill-opacity:1;stroke:#3784cb;stroke-width:1.16529775;stroke-miterlimit:4;stroke-dasharray:none;stroke-opacity:0.99215686" />
    <path
       d="M -93.494203,557.06828 C -111.97214,507.33731 -85.026939,452.48665 -93.872808,409.76653 L 260.10893,482.50836 z"
       id="path3628"
       style="opacity:0.98947371;fill:#75aadb;fill-opacity:1;stroke:#3784cb;stroke-width:1.16529775;stroke-miterlimit:4;stroke-dasharray:none;stroke-opacity:0.99215686" />
    <path
       d="M -69.252909,335.15953 C -54.97074,284.0653 -0.93122084,255.52816 17.022592,215.76738 L 260.64324,482.68201 z"
       id="path3632"
       style="opacity:0.98947371;fill:#75aadb;fill-opacity:1;stroke:#3784cb;stroke-width:1.16529775;stroke-miterlimit:4;stroke-dasharray:none;stroke-opacity:0.9921568" />
    <path
       d="M 233.08812,225.52594 C 268.63352,212.31878 282.2102,236.70357 312.74461,230.38101 L 260.75213,483.39074 L 233.08812,225.52594 z"
       id="path3302"
       style="opacity:0.98947371;fill:#ffffff;fill-opacity:1;stroke:#3784cb;stroke-width:0.83290118;stroke-miterlimit:4;stroke-dasharray:none;stroke-opacity:0.99215686" />
    <path
       d="M 389.44645,257.6869 C 425.96627,267.89516 422.98707,296.8113 451.40622,309.64389 L 260.628,483.77268 L 389.44645,257.6869 z"
       id="path3304"
       style="opacity:0.98947371;fill:#ffffff;fill-opacity:1;stroke:#3784cb;stroke-width:0.83290118;stroke-miterlimit:4;stroke-dasharray:none;stroke-opacity:0.99215686" />
    <path
       d="M 495.18081,377.82938 C 518.7257,407.55386 501.54749,428.18604 516.99626,455.27218 L 260.30311,484.0087 L 495.18081,377.82938 z"
       id="path3306"
       style="opacity:0.98947371;fill:#ffffff;fill-opacity:1;stroke:#3784cb;stroke-width:0.83290118;stroke-miterlimit:4;stroke-dasharray:none;stroke-opacity:0.99215686" />
    <path
       d="M 433.6303,292.24588 C 465.20819,313.23976 472.67113,356.27731 495.73386,377.26383 L 260.48425,483.91641 z"
       id="path3308"
       style="opacity:0.98947371;fill:#ffffff;fill-opacity:1;stroke:#3784cb;stroke-width:0.83290118;stroke-miterlimit:4;stroke-dasharray:none;stroke-opacity:0.99215686" />
    <path
       d="M 513.11209,536.033 C 514.68871,573.91995 487.88404,580.64712 484.46154,611.64081 L 259.90155,484.0087 L 513.11209,536.033 z"
       id="path3310"
       style="opacity:0.98947371;fill:#ffffff;fill-opacity:1;stroke:#3784cb;stroke-width:0.83290118;stroke-miterlimit:4;stroke-dasharray:none;stroke-opacity:0.99215686" />
    <path
       d="m 433.30758,674.00407 c -20.99389,31.57789 -46.09182,21.95547 -67.07832,45.0182 C 333.92901,640.60573 295.12751,562.1892 259.57664,483.77266 Z"
       id="path3312"
       style="opacity:0.989474;fill:#ffffff;fill-opacity:1;stroke:#3784cb;stroke-width:0.832901;stroke-miterlimit:4;stroke-dasharray:none;stroke-opacity:0.992157" />
    <path
       d="M 287.97083,742.96409 C 252.4254,756.17124 237.99444,730.0779 207.46008,736.40052 L 259.45259,483.39072 L 287.97083,742.96409 z"
       id="path3314"
       style="opacity:0.98947371;fill:#ffffff;fill-opacity:1;stroke:#3784cb;stroke-width:0.83290118;stroke-miterlimit:4;stroke-dasharray:none;stroke-opacity:0.99215686" />
    <path
       d="M 130.21496,709.40642 C 93.69513,699.19818 97.217593,669.97016 68.79845,657.1376 L 259.57667,483.00878 L 130.21496,709.40642 z"
       id="path3316"
       style="opacity:0.98947371;fill:#ffffff;fill-opacity:1;stroke:#3784cb;stroke-width:0.83290118;stroke-miterlimit:4;stroke-dasharray:none;stroke-opacity:0.99215686" />
    <path
       d="M 25.749251,588.49196 C 2.2043391,558.76749 18.657178,538.59542 3.2084063,511.50928 L 259.9016,482.77276 L 25.749251,588.49196 z"
       id="path3318"
       style="opacity:0.98947371;fill:#ffffff;fill-opacity:1;stroke:#3784cb;stroke-width:0.83290118;stroke-miterlimit:4;stroke-dasharray:none;stroke-opacity:0.99215686" />
    <path
       d="M 7.737103,431.43627 C 6.1604551,393.54936 32.320598,386.13436 35.743077,355.14063 L 260.30316,482.77279 L 7.737103,431.43627 z"
       id="path3320"
       style="opacity:0.98947371;fill:#ffffff;fill-opacity:1;stroke:#3784cb;stroke-width:0.83290118;stroke-miterlimit:4;stroke-dasharray:none;stroke-opacity:0.99215686" />
    <path
       d="M 85.18862,291.92316 C 106.18246,260.34524 132.98892,270.82192 153.97543,247.75917 L 260.62802,483.00885 L 85.18862,291.92316 z"
       id="path3322"
       style="opacity:0.98947371;fill:#ffffff;fill-opacity:1;stroke:#3784cb;stroke-width:0.83290118;stroke-miterlimit:4;stroke-dasharray:none;stroke-opacity:0.99215686" />
    <path
       d="M 131.93589,259.28883 C 161.66035,235.74394 204.89768,241.94556 231.98379,226.49679 L 260.72031,483.19001 z"
       id="path3324"
       style="opacity:0.98947371;fill:#ffffff;fill-opacity:1;stroke:#3784cb;stroke-width:0.83290118;stroke-miterlimit:4;stroke-dasharray:none;stroke-opacity:0.99215686" />
    <path
       d="M 288.13728,226.75414 C 326.02421,225.17751 357.35871,255.60901 388.35242,259.03153 L 260.72031,483.59152 z"
       id="path3326"
       style="opacity:0.98947371;fill:#ffffff;fill-opacity:1;stroke:#3784cb;stroke-width:0.83290118;stroke-miterlimit:4;stroke-dasharray:none;stroke-opacity:0.99215686" />
    <path
       d="M 513.2888,430.8566 C 526.49593,466.40203 506.78951,505.49861 513.11209,536.033 L 260.10233,484.04051 L 513.2888,430.8566 z"
       id="path3328"
       style="opacity:0.98947371;fill:#ffffff;fill-opacity:1;stroke:#3784cb;stroke-width:0.83290118;stroke-miterlimit:4;stroke-dasharray:none;stroke-opacity:0.99215686" />
    <path
       d="M 495.51497,589.35861 C 485.30673,625.87846 446.68175,646.27548 433.84921,674.69463 L 259.7204,483.91638 z"
       id="path3330"
       style="opacity:0.98947371;fill:#ffffff;fill-opacity:1;stroke:#3784cb;stroke-width:0.83290118;stroke-miterlimit:4;stroke-dasharray:none;stroke-opacity:0.99215686" />
    <path
       d="M 388.2688,707.49263 C 358.54434,731.03754 315.30703,724.8359 288.22088,740.28469 L 259.48438,483.5915 z"
       id="path3332"
       style="opacity:0.98947371;fill:#ffffff;fill-opacity:1;stroke:#3784cb;stroke-width:0.83290118;stroke-miterlimit:4;stroke-dasharray:none;stroke-opacity:0.99215686" />
    <path
       d="M 232.06741,740.02735 C 194.18046,741.60395 162.84595,711.17245 131.85225,707.74997 L 259.48438,483.18989 z"
       id="path3334"
       style="opacity:0.98947371;fill:#ffffff;fill-opacity:1;stroke:#3784cb;stroke-width:0.83290118;stroke-miterlimit:4;stroke-dasharray:none;stroke-opacity:0.99215686" />
    <path
       d="M 86.574392,674.53556 C 54.9965,653.54172 47.533537,610.50417 24.470779,589.51767 L 259.72044,482.86503 z"
       id="path3336"
       style="opacity:0.98947371;fill:#ffffff;fill-opacity:1;stroke:#3784cb;stroke-width:0.83290118;stroke-miterlimit:4;stroke-dasharray:none;stroke-opacity:0.99215686" />
    <path
       d="M 7.363159,536.03298 C -5.844023,500.48757 13.41518,461.28283 7.0925535,430.74849 L 260.10238,482.74097 z"
       id="path3338"
       style="opacity:0.98947371;fill:#ffffff;fill-opacity:1;stroke:#3784cb;stroke-width:0.83290118;stroke-miterlimit:4;stroke-dasharray:none;stroke-opacity:0.99215686" />
    <path
       d="M 24.689715,377.42283 C 34.897957,340.90302 73.52294,320.506 86.355479,292.08684 L 260.48429,482.86508 z"
       id="path3340"
       style="opacity:0.98947371;fill:#ffffff;fill-opacity:1;stroke:#3784cb;stroke-width:0.83290118;stroke-miterlimit:4;stroke-dasharray:none;stroke-opacity:0.99215686" />
    <path
       d="M 244.38759,332.96569 C 265.16616,325.24527 273.10258,339.49973 290.95189,335.8038 L 260.55897,483.70407 L 244.38759,332.96569 z"
       id="path3387"
       style="opacity:0.98947371;fill:#75aadb;fill-opacity:0.99215896;stroke:#3784cb;stroke-width:0.48688367;stroke-miterlimit:4;stroke-dasharray:none;stroke-opacity:0.99215686" />
    <path
       d="M 335.78898,351.76581 C 357.13715,357.73319 355.39561,374.63653 372.00842,382.138 L 260.48642,483.92734 L 335.78898,351.76581 z"
       id="path3389"
       style="opacity:0.98947371;fill:#75aadb;fill-opacity:0.99215896;stroke:#3784cb;stroke-width:0.48688367;stroke-miterlimit:4;stroke-dasharray:none;stroke-opacity:0.99215686" />
    <path
       d="M 397.59745,421.99673 C 411.36094,439.37257 401.31918,451.43341 410.34996,467.26698 L 260.29649,484.06531 L 397.59745,421.99673 z"
       id="path3391"
       style="opacity:0.98947371;fill:#75aadb;fill-opacity:0.99215896;stroke:#3784cb;stroke-width:0.48688367;stroke-miterlimit:4;stroke-dasharray:none;stroke-opacity:0.99215686" />
    <path
       d="M 361.61725,371.96774 C 380.07654,384.24001 384.43909,409.39818 397.92075,421.66613 L 260.40237,484.01136 z"
       id="path3393"
       style="opacity:0.98947371;fill:#75aadb;fill-opacity:0.99215896;stroke:#3784cb;stroke-width:0.48688367;stroke-miterlimit:4;stroke-dasharray:none;stroke-opacity:0.99215686" />
    <path
       d="M 408.07942,514.47681 C 409.00105,536.62416 393.33204,540.55659 391.33136,558.67439 L 260.06176,484.06531 L 408.07942,514.47681 z"
       id="path3395"
       style="opacity:0.98947371;fill:#75aadb;fill-opacity:0.99215896;stroke:#000000;stroke-width:0.48688367;stroke-miterlimit:4;stroke-dasharray:none" />
    <path
       d="M 361.42861,595.12968 C 349.15635,613.58897 334.48501,607.96403 322.21706,621.44569 L 259.87184,483.92732 L 361.42861,595.12968 z"
       id="path3397"
       style="opacity:0.98947371;fill:#75aadb;fill-opacity:0.99215896;stroke:#000000;stroke-width:0.48688367;stroke-miterlimit:4;stroke-dasharray:none" />
    <path
       d="M 276.47004,635.4412 C 255.69147,643.16162 247.25567,627.90839 229.40639,631.60438 L 259.79931,483.70404 L 276.47004,635.4412 z"
       id="path3399"
       style="opacity:0.98947371;fill:#75aadb;fill-opacity:0.99215896;stroke:#3784cb;stroke-width:0.48688367;stroke-miterlimit:4;stroke-dasharray:none;stroke-opacity:0.99215686" />
    <path
       d="M 184.2517,615.8246 C 162.90354,609.85725 164.96264,592.7716 148.34983,585.27014 L 259.87186,483.4808 L 184.2517,615.8246 z"
       id="path3401"
       style="opacity:0.98947371;fill:#75aadb;fill-opacity:0.99215896;stroke:#3784cb;stroke-width:0.48688367;stroke-miterlimit:4;stroke-dasharray:none;stroke-opacity:0.99215686" />
    <path
       d="M 123.18486,545.14241 C 109.42136,527.76656 119.03908,515.97471 110.0083,500.14115 L 260.06178,483.34283 L 123.18486,545.14241 z"
       id="path3403"
       style="opacity:0.98947371;fill:#75aadb;fill-opacity:0.99215896;stroke:#3784cb;stroke-width:0.48688367;stroke-miterlimit:4;stroke-dasharray:none;stroke-opacity:0.99215686" />
    <path
       d="M 112.6556,453.33338 C 111.73396,431.18605 127.02624,426.85152 129.02689,408.73373 L 260.29652,483.34283 L 112.6556,453.33338 z"
       id="path3405"
       style="opacity:0.98947371;fill:#75aadb;fill-opacity:0.99215896;stroke:#3784cb;stroke-width:0.48688367;stroke-miterlimit:4;stroke-dasharray:none;stroke-opacity:0.99215686" />
    <path
       d="M 157.93094,371.77908 C 170.20318,353.31979 185.87326,359.44408 198.14121,345.96242 L 260.48644,483.48082 L 157.93094,371.77908 z"
       id="path3407"
       style="opacity:0.98947371;fill:#75aadb;fill-opacity:0.99215896;stroke:#3784cb;stroke-width:0.48688367;stroke-miterlimit:4;stroke-dasharray:none;stroke-opacity:0.99215686" />
    <path
       d="M 185.2577,352.70225 C 202.63353,338.93875 227.90851,342.56402 243.74207,333.53322 L 260.54037,483.58672 z"
       id="path3409"
       style="opacity:0.98947371;fill:#75aadb;fill-opacity:0.99215896;stroke:#3784cb;stroke-width:0.48688367;stroke-miterlimit:4;stroke-dasharray:none;stroke-opacity:0.99215686" />
    <path
       d="M 276.56734,333.68366 C 298.71466,332.76202 317.03167,350.55115 335.14944,352.55185 L 260.54037,483.82144 z"
       id="path3411"
       style="opacity:0.98947371;fill:#75aadb;fill-opacity:0.99215896;stroke:#3784cb;stroke-width:0.48688367;stroke-miterlimit:4;stroke-dasharray:none;stroke-opacity:0.99215686" />
    <path
       d="M 408.18271,452.99453 C 415.90314,473.77307 404.38347,496.62752 408.07942,514.47681 L 260.17913,484.08391 L 408.18271,452.99453 z"
       id="path3413"
       style="opacity:0.98947371;fill:#75aadb;fill-opacity:0.99215896;stroke:#3784cb;stroke-width:0.48688367;stroke-miterlimit:4;stroke-dasharray:none;stroke-opacity:0.99215686" />
    <path
       d="M 397.7928,545.64901 C 391.82543,566.9972 369.24666,578.92055 361.74522,595.53336 L 259.95586,484.01133 z"
       id="path3415"
       style="opacity:0.98947371;fill:#75aadb;fill-opacity:0.99215896;stroke:#3784cb;stroke-width:0.48688367;stroke-miterlimit:4;stroke-dasharray:none;stroke-opacity:0.99215686" />
    <path
       d="M 335.10057,614.70586 C 317.72472,628.46936 292.44979,624.84412 276.61621,633.87492 L 259.81788,483.82144 z"
       id="path3417"
       style="opacity:0.98947371;fill:#75aadb;fill-opacity:0.99215896;stroke:#3784cb;stroke-width:0.48688367;stroke-miterlimit:4;stroke-dasharray:none;stroke-opacity:0.99215686" />
    <path
       d="M 243.79094,633.72448 C 221.64361,634.64611 203.3266,616.85696 185.20881,614.8563 L 259.81788,483.58668 z"
       id="path3419"
       style="opacity:0.98947371;fill:#75aadb;fill-opacity:0.99215896;stroke:#3784cb;stroke-width:0.48688367;stroke-miterlimit:4;stroke-dasharray:none;stroke-opacity:0.99215686" />
    <path
       d="M 158.741,595.44037 C 140.28173,583.16813 135.91916,558.00996 122.4375,545.742 L 259.9559,483.39676 z"
       id="path3421"
       style="opacity:0.98947371;fill:#75aadb;fill-opacity:0.99215896;stroke:#3784cb;stroke-width:0.48688367;stroke-miterlimit:4;stroke-dasharray:none;stroke-opacity:0.99215686" />
    <path
       d="M 112.43701,514.47681 C 104.71656,493.69824 115.97481,470.78059 112.27881,452.93133 L 260.17915,483.32423 z"
       id="path3423"
       style="opacity:0.98947371;fill:#75aadb;fill-opacity:0.99215896;stroke:#3784cb;stroke-width:0.48688367;stroke-miterlimit:4;stroke-dasharray:none;stroke-opacity:0.99215686" />
    <path
       d="M 122.5655,421.75908 C 128.53285,400.41094 151.11161,388.48759 158.61305,371.87475 L 260.4024,483.39678 z"
       id="path3425"
       style="opacity:0.98947371;fill:#75aadb;fill-opacity:0.99215896;stroke:#3784cb;stroke-width:0.48688367;stroke-miterlimit:4;stroke-dasharray:none;stroke-opacity:0.99215686" />
    <g
       transform="matrix(1.6344709,0,0,1.6344709,481.03461,-200.36241)"
       id="g3429">
      <path
         d="M 32,610.36218 A 18,18 0 1 1 -4,610.36218 A 18,18 0 1 1 32,610.36218 z"
         transform="matrix(1.331213,0,0,1.331213,-153.69437,-393.72757)"
         id="path3912"
         style="fill:#2e78ba;fill-opacity:1;stroke:none;filter:url(#filter3940)" />
      <path
         d="M -114.88969,418.79452 A 20.167705,20.167705 0 0 1 -155.2251,418.79452 A 20.167705,20.167705 0 1 1 -114.88969,418.79452 z"
         id="path3880"
         style="fill:#75aadd;fill-opacity:1;stroke:none" />
    </g>
  </g>
</svg>
